<svg xmlns="http://www.w3.org/2000/svg" xmlns:xlink="http://www.w3.org/1999/xlink" width="1524" height="1106" viewBox="0 0 1524 1106">
  <defs>
    <style>
      .cls-1 {
        fill: #0b005f;
      }

      .cls-2, .cls-4, .cls-5 {
        fill: #fff;
      }

      .cls-2 {
        font-size: 55px;
      }

      .cls-2, .cls-5 {
        font-family: Prompt-Regular, Prompt;
      }

      .cls-3 {
        fill: none;
      }

      .cls-5 {
        font-size: 50px;
      }

      .cls-6 {
        fill: #7900ff;
      }

      .cls-7 {
        filter: url(#Rectangle_57);
      }

      .cls-8 {
        filter: url(#Rectangle_56);
      }

      .cls-9 {
        filter: url(#Rectangle_55);
      }

      .cls-10 {
        filter: url(#Rectangle_54);
      }

      .cls-11 {
        filter: url(#Rectangle_53);
      }

      .cls-12 {
        filter: url(#Rectangle_52);
      }

      .cls-13 {
        filter: url(#Rectangle_51);
      }

      .cls-14 {
        filter: url(#Rectangle_50);
      }

      .cls-15 {
        filter: url(#Rectangle_49);
      }

      .cls-16 {
        filter: url(#Rectangle_48);
      }

      .cls-17 {
        filter: url(#Shadow-2);
      }

      .cls-18 {
        filter: url(#Light-2);
      }

      .cls-19 {
        filter: url(#Shadow);
      }

      .cls-20 {
        filter: url(#Light);
      }
    </style>
    <filter id="Light" x="373" y="0" width="665" height="189" filterUnits="userSpaceOnUse">
      <feOffset dx="-5" dy="-5" input="SourceAlpha"/>
      <feGaussianBlur stdDeviation="10" result="blur"/>
      <feFlood flood-color="#fff" flood-opacity="0.2"/>
      <feComposite operator="in" in2="blur"/>
      <feComposite in="SourceGraphic"/>
    </filter>
    <filter id="Shadow" x="383" y="15" width="665" height="189" filterUnits="userSpaceOnUse">
      <feOffset dx="5" dy="10" input="SourceAlpha"/>
      <feGaussianBlur stdDeviation="10" result="blur-2"/>
      <feFlood flood-opacity="0.38"/>
      <feComposite operator="in" in2="blur-2"/>
      <feComposite in="SourceGraphic"/>
    </filter>
    <filter id="Light-2" x="0" y="236" width="1514" height="855" filterUnits="userSpaceOnUse">
      <feOffset dx="-5" dy="-5" input="SourceAlpha"/>
      <feGaussianBlur stdDeviation="10" result="blur-3"/>
      <feFlood flood-color="#fff" flood-opacity="0.2"/>
      <feComposite operator="in" in2="blur-3"/>
      <feComposite in="SourceGraphic"/>
    </filter>
    <filter id="Shadow-2" x="10" y="251" width="1514" height="855" filterUnits="userSpaceOnUse">
      <feOffset dx="5" dy="10" input="SourceAlpha"/>
      <feGaussianBlur stdDeviation="10" result="blur-4"/>
      <feFlood flood-opacity="0.38"/>
      <feComposite operator="in" in2="blur-4"/>
      <feComposite in="SourceGraphic"/>
    </filter>
    <filter id="Rectangle_48">
      <feOffset dx="-10" dy="-10" input="SourceAlpha"/>
      <feGaussianBlur stdDeviation="3" result="blur-5"/>
      <feFlood flood-opacity="0.161" result="color"/>
      <feComposite operator="out" in="SourceGraphic" in2="blur-5"/>
      <feComposite operator="in" in="color"/>
      <feComposite operator="in" in2="SourceGraphic"/>
    </filter>
    <filter id="Rectangle_49">
      <feOffset dx="-10" dy="-10" input="SourceAlpha"/>
      <feGaussianBlur stdDeviation="3" result="blur-6"/>
      <feFlood flood-opacity="0.161" result="color-2"/>
      <feComposite operator="out" in="SourceGraphic" in2="blur-6"/>
      <feComposite operator="in" in="color-2"/>
      <feComposite operator="in" in2="SourceGraphic"/>
    </filter>
    <filter id="Rectangle_50">
      <feOffset dx="-10" dy="-10" input="SourceAlpha"/>
      <feGaussianBlur stdDeviation="3" result="blur-7"/>
      <feFlood flood-opacity="0.161" result="color-3"/>
      <feComposite operator="out" in="SourceGraphic" in2="blur-7"/>
      <feComposite operator="in" in="color-3"/>
      <feComposite operator="in" in2="SourceGraphic"/>
    </filter>
    <filter id="Rectangle_51">
      <feOffset dy="-10" input="SourceAlpha"/>
      <feGaussianBlur stdDeviation="3" result="blur-8"/>
      <feFlood flood-opacity="0.161" result="color-4"/>
      <feComposite operator="out" in="SourceGraphic" in2="blur-8"/>
      <feComposite operator="in" in="color-4"/>
      <feComposite operator="in" in2="SourceGraphic"/>
    </filter>
    <filter id="Rectangle_52">
      <feOffset dx="-10" dy="-10" input="SourceAlpha"/>
      <feGaussianBlur stdDeviation="3" result="blur-9"/>
      <feFlood flood-opacity="0.161" result="color-5"/>
      <feComposite operator="out" in="SourceGraphic" in2="blur-9"/>
      <feComposite operator="in" in="color-5"/>
      <feComposite operator="in" in2="SourceGraphic"/>
    </filter>
    <filter id="Rectangle_53">
      <feOffset dx="-10" dy="-10" input="SourceAlpha"/>
      <feGaussianBlur stdDeviation="3" result="blur-10"/>
      <feFlood flood-opacity="0.161" result="color-6"/>
      <feComposite operator="out" in="SourceGraphic" in2="blur-10"/>
      <feComposite operator="in" in="color-6"/>
      <feComposite operator="in" in2="SourceGraphic"/>
    </filter>
    <filter id="Rectangle_54">
      <feOffset dx="-10" dy="-10" input="SourceAlpha"/>
      <feGaussianBlur stdDeviation="3" result="blur-11"/>
      <feFlood flood-opacity="0.161" result="color-7"/>
      <feComposite operator="out" in="SourceGraphic" in2="blur-11"/>
      <feComposite operator="in" in="color-7"/>
      <feComposite operator="in" in2="SourceGraphic"/>
    </filter>
    <filter id="Rectangle_55">
      <feOffset dx="-10" dy="-10" input="SourceAlpha"/>
      <feGaussianBlur stdDeviation="3" result="blur-12"/>
      <feFlood flood-opacity="0.161" result="color-8"/>
      <feComposite operator="out" in="SourceGraphic" in2="blur-12"/>
      <feComposite operator="in" in="color-8"/>
      <feComposite operator="in" in2="SourceGraphic"/>
    </filter>
    <filter id="Rectangle_56">
      <feOffset dx="-10" dy="-10" input="SourceAlpha"/>
      <feGaussianBlur stdDeviation="3" result="blur-13"/>
      <feFlood flood-opacity="0.161" result="color-9"/>
      <feComposite operator="out" in="SourceGraphic" in2="blur-13"/>
      <feComposite operator="in" in="color-9"/>
      <feComposite operator="in" in2="SourceGraphic"/>
    </filter>
    <filter id="Rectangle_57">
      <feOffset dx="-10" dy="-10" input="SourceAlpha"/>
      <feGaussianBlur stdDeviation="3" result="blur-14"/>
      <feFlood flood-opacity="0.161" result="color-10"/>
      <feComposite operator="out" in="SourceGraphic" in2="blur-14"/>
      <feComposite operator="in" in="color-10"/>
      <feComposite operator="in" in2="SourceGraphic"/>
    </filter>
  </defs>
  <g id="Group_12" data-name="Group 12" transform="translate(-4069 -3189)">
    <g id="Group_10" data-name="Group 10" transform="translate(4476.754 3224.491)">
      <g class="cls-20" transform="matrix(1, 0, 0, 1, -407.75, -35.49)">
        <rect id="Light-3" data-name="Light" class="cls-1" width="605" height="129" rx="64.5" transform="translate(408 35)"/>
      </g>
      <g class="cls-19" transform="matrix(1, 0, 0, 1, -407.75, -35.49)">
        <rect id="Shadow-3" data-name="Shadow" class="cls-1" width="605" height="129" rx="64.5" transform="translate(408 35)"/>
      </g>
      <rect id="Base" class="cls-1" width="605" height="129" rx="64.5" transform="translate(0.246 -0.491)"/>
    </g>
    <g id="Group_11" data-name="Group 11" transform="translate(4104.381 3459.718)">
      <g class="cls-18" transform="matrix(1, 0, 0, 1, -35.38, -270.72)">
        <rect id="Light-4" data-name="Light" class="cls-1" width="1454" height="795" rx="89" transform="translate(35 271)"/>
      </g>
      <g class="cls-17" transform="matrix(1, 0, 0, 1, -35.38, -270.72)">
        <rect id="Shadow-4" data-name="Shadow" class="cls-1" width="1454" height="795" rx="89" transform="translate(35 271)"/>
      </g>
      <rect id="Base-2" data-name="Base" class="cls-1" width="1454" height="795" rx="89" transform="translate(-0.381 0.282)"/>
    </g>
    <text id="Skills_Tools" data-name="Skills+Tools" class="cls-2" transform="translate(4831 3309)"><tspan x="-142.477" y="0">Skills+Tools</tspan></text>
    <g id="handyman_white_24dp" transform="translate(4557.486 3259.09)">
      <g id="Group_3" data-name="Group 3" transform="translate(0 0)">
        <rect id="Rectangle_37" data-name="Rectangle 37" class="cls-3" width="59" height="59" transform="translate(-0.486 -0.091)"/>
      </g>
      <g id="Group_7" data-name="Group 7" transform="translate(5.375 2.506)">
        <g id="Group_6" data-name="Group 6">
          <g id="Group_4" data-name="Group 4" transform="translate(26.518 29.038)">
            <path id="Path_28" data-name="Path 28" class="cls-4" d="M34.441,25.836,21.476,12.87H19.054L12.84,19.084v2.422L25.806,34.471a2.436,2.436,0,0,0,3.449,0l5.186-5.186A2.436,2.436,0,0,0,34.441,25.836Zm-6.923,3.474L17.146,18.937,18.882,17.2,29.255,27.572Z" transform="translate(-12.84 -12.87)"/>
          </g>
          <g id="Group_5" data-name="Group 5">
            <path id="Path_29" data-name="Path 29" class="cls-4" d="M39.527,23.482l3.449-3.449,5.186,5.186a7.338,7.338,0,0,0,0-10.372L39.5,6.186,36.053,9.636v-6.9L34.341,1l-8.66,8.66L27.417,11.4h6.923l-3.449,3.449,2.593,2.593-7.07,7.07-10.1-10.1V10.932L8.923,3.544,2,10.467,9.412,17.88h3.449l10.1,10.1-2.079,2.079H15.7L2.734,43.028a2.436,2.436,0,0,0,0,3.449L7.92,51.664a2.436,2.436,0,0,0,3.449,0L24.335,38.7V33.512l12.6-12.6ZM20.005,36.08,9.633,46.453,7.9,44.716,18.268,34.344h0l1.737,1.737Z" transform="translate(-2 -1)"/>
          </g>
        </g>
      </g>
    </g>
    <text id="Adobe_Photoshop_Adobe_Illustrator_C_HTML_Pitching_ขายฝัน_" data-name="Adobe Photoshop
Adobe Illustrator
C++
HTML
Pitching (ขายฝัน)
" class="cls-5" transform="translate(4205 3648)"><tspan x="0" y="0">Adobe Photoshop</tspan><tspan x="0" y="107">Adobe Illustrator</tspan><tspan x="0" y="214">C++</tspan><tspan x="0" y="321">HTML</tspan><tspan x="0" y="428">Pitching (ขายฝัน)</tspan><tspan x="0" y="535"></tspan></text>
    <g data-type="innerShadowGroup">
      <rect id="Rectangle_48-2" data-name="Rectangle 48" class="cls-4" width="623" height="81" rx="40.5" transform="translate(4779 3593)"/>
      <g class="cls-16" transform="matrix(1, 0, 0, 1, 4069, 3189)">
        <rect id="Rectangle_48-3" data-name="Rectangle 48" class="cls-4" width="623" height="81" rx="40.5" transform="translate(710 404)"/>
      </g>
    </g>
    <g data-type="innerShadowGroup">
      <rect id="Rectangle_49-2" data-name="Rectangle 49" class="cls-6" width="554" height="81" rx="40.5" transform="translate(4779 3593)"/>
      <g class="cls-15" transform="matrix(1, 0, 0, 1, 4069, 3189)">
        <rect id="Rectangle_49-3" data-name="Rectangle 49" class="cls-4" width="554" height="81" rx="40.5" transform="translate(710 404)"/>
      </g>
    </g>
    <g data-type="innerShadowGroup">
      <rect id="Rectangle_50-2" data-name="Rectangle 50" class="cls-4" width="623" height="82" rx="41" transform="translate(4779 3704)"/>
      <g class="cls-14" transform="matrix(1, 0, 0, 1, 4069, 3189)">
        <rect id="Rectangle_50-3" data-name="Rectangle 50" class="cls-4" width="623" height="82" rx="41" transform="translate(710 515)"/>
      </g>
    </g>
    <g data-type="innerShadowGroup">
      <rect id="Rectangle_51-2" data-name="Rectangle 51" class="cls-4" width="623" height="82" rx="41" transform="translate(4779 3816)"/>
      <g class="cls-13" transform="matrix(1, 0, 0, 1, 4069, 3189)">
        <rect id="Rectangle_51-3" data-name="Rectangle 51" class="cls-4" width="623" height="82" rx="41" transform="translate(710 627)"/>
      </g>
    </g>
    <g data-type="innerShadowGroup">
      <rect id="Rectangle_52-2" data-name="Rectangle 52" class="cls-4" width="623" height="81" rx="40.5" transform="translate(4779 3928)"/>
      <g class="cls-12" transform="matrix(1, 0, 0, 1, 4069, 3189)">
        <rect id="Rectangle_52-3" data-name="Rectangle 52" class="cls-4" width="623" height="81" rx="40.5" transform="translate(710 739)"/>
      </g>
    </g>
    <g data-type="innerShadowGroup">
      <rect id="Rectangle_53-2" data-name="Rectangle 53" class="cls-4" width="623" height="81" rx="40.5" transform="translate(4779 4039)"/>
      <g class="cls-11" transform="matrix(1, 0, 0, 1, 4069, 3189)">
        <rect id="Rectangle_53-3" data-name="Rectangle 53" class="cls-4" width="623" height="81" rx="40.5" transform="translate(710 850)"/>
      </g>
    </g>
    <g data-type="innerShadowGroup">
      <rect id="Rectangle_54-2" data-name="Rectangle 54" class="cls-6" width="478" height="82" rx="41" transform="translate(4779 3704)"/>
      <g class="cls-10" transform="matrix(1, 0, 0, 1, 4069, 3189)">
        <rect id="Rectangle_54-3" data-name="Rectangle 54" class="cls-4" width="478" height="82" rx="41" transform="translate(710 515)"/>
      </g>
    </g>
    <g data-type="innerShadowGroup">
      <rect id="Rectangle_55-2" data-name="Rectangle 55" class="cls-6" width="354" height="82" rx="41" transform="translate(4779 3816)"/>
      <g class="cls-9" transform="matrix(1, 0, 0, 1, 4069, 3189)">
        <rect id="Rectangle_55-3" data-name="Rectangle 55" class="cls-4" width="354" height="82" rx="41" transform="translate(710 627)"/>
      </g>
    </g>
    <g data-type="innerShadowGroup">
      <rect id="Rectangle_56-2" data-name="Rectangle 56" class="cls-6" width="229" height="81" rx="40.5" transform="translate(4779 3928)"/>
      <g class="cls-8" transform="matrix(1, 0, 0, 1, 4069, 3189)">
        <rect id="Rectangle_56-3" data-name="Rectangle 56" class="cls-4" width="229" height="81" rx="40.5" transform="translate(710 739)"/>
      </g>
    </g>
    <g data-type="innerShadowGroup">
      <rect id="Rectangle_57-2" data-name="Rectangle 57" class="cls-6" width="277" height="81" rx="40.5" transform="translate(4779 4039)"/>
      <g class="cls-7" transform="matrix(1, 0, 0, 1, 4069, 3189)">
        <rect id="Rectangle_57-3" data-name="Rectangle 57" class="cls-4" width="277" height="81" rx="40.5" transform="translate(710 850)"/>
      </g>
    </g>
  </g>
</svg>
